<svg id="Layer_1" enable-background="new 0 0 512 512" height="512" viewBox="0 0 512 512" width="512" xmlns="http://www.w3.org/2000/svg"><path d="m464.883 64.267h-289.233c-25.98 0-47.117 21.137-47.117 47.149 0 25.98 21.137 47.117 47.117 47.117h289.232c25.98 0 47.117-21.137 47.117-47.117.001-26.013-21.136-47.149-47.116-47.149z"/><path d="m47.134 64.267c-25.989 0-47.134 21.144-47.134 47.133s21.145 47.133 47.134 47.133 47.133-21.144 47.133-47.133-21.144-47.133-47.133-47.133z"/><path d="m47.134 208.867c-25.989 0-47.134 21.144-47.134 47.133s21.145 47.133 47.134 47.133 47.133-21.144 47.133-47.133-21.144-47.133-47.133-47.133z"/><path d="m47.134 353.467c-25.989 0-47.134 21.144-47.134 47.133s21.145 47.133 47.134 47.133 47.133-21.144 47.133-47.133-21.144-47.133-47.133-47.133z"/><path d="m464.883 208.867h-289.233c-25.98 0-47.117 21.137-47.117 47.149 0 25.98 21.137 47.117 47.117 47.117h289.232c25.98 0 47.117-21.137 47.117-47.117.001-26.013-21.136-47.149-47.116-47.149z"/><path d="m464.883 353.467h-289.233c-25.98 0-47.117 21.137-47.117 47.149 0 25.98 21.137 47.117 47.117 47.117h289.232c25.98 0 47.117-21.137 47.117-47.117.001-26.012-21.136-47.149-47.116-47.149z"/></svg>